<svg width="960" height="1160" viewBox="0 0 960 1160" xmlns="http://www.w3.org/2000/svg" font-family="'Segoe Print','Comic Sans MS',cursive">
  <defs>
    <filter id="sketchy" x="-5%" y="-5%" width="110%" height="110%">
      <feTurbulence type="fractalNoise" baseFrequency="0.012" numOctaves="2" seed="7" result="noise"/>
      <feDisplacementMap in="SourceGraphic" in2="noise" scale="3.2"/>
    </filter>
    <marker id="arrow" markerWidth="10" markerHeight="10" refX="8" refY="3" orient="auto" markerUnits="strokeWidth">
      <path d="M0,0 L8,3 L0,6 Z" fill="#333"/>
    </marker>
  </defs>

  <style>
    .box   { stroke:#333; stroke-width:2.5; filter:url(#sketchy); }
    .lbl   { font-size:15px; fill:#1a1a1a; }
    .lbl-b { font-size:15px; fill:#1a1a1a; font-weight:bold; }
    .grp   { font-size:14px; fill:#555; }
    .title { font-size:26px; fill:#111; font-weight:bold; }
    .arrow { stroke:#333; stroke-width:2.2; fill:none; marker-end:url(#arrow); filter:url(#sketchy); }
  </style>

  <rect width="960" height="1160" fill="#fdfdfb"/>

  <text x="480" y="45" text-anchor="middle" class="title">dbt-dag — Architecture</text>

  <!-- Docker container -->
  <rect x="30" y="80" width="900" height="210" rx="14" class="box" fill="none" stroke-dasharray="8 6"/>
  <g transform="translate(49.0,89.0) scale(0.9167)"><path fill="#2496ED" d="M13.983 11.078h2.119a.186.186 0 00.186-.185V9.006a.186.186 0 00-.186-.186h-2.119a.185.185 0 00-.185.185v1.888c0 .102.083.185.185.185m-2.954-5.43h2.118a.186.186 0 00.186-.186V3.574a.186.186 0 00-.186-.185h-2.118a.185.185 0 00-.185.185v1.888c0 .102.082.185.185.185m0 2.716h2.118a.187.187 0 00.186-.186V6.29a.186.186 0 00-.186-.185h-2.118a.185.185 0 00-.185.185v1.887c0 .102.082.185.185.186m-2.93 0h2.12a.186.186 0 00.184-.186V6.29a.185.185 0 00-.185-.185H8.1a.185.185 0 00-.185.185v1.887c0 .102.083.185.185.186m-2.964 0h2.119a.186.186 0 00.185-.186V6.29a.185.185 0 00-.185-.185H5.136a.186.186 0 00-.186.185v1.887c0 .102.084.185.186.186m5.893 2.715h2.118a.186.186 0 00.186-.185V9.006a.186.186 0 00-.186-.186h-2.118a.185.185 0 00-.185.185v1.888c0 .102.082.185.185.185m-2.93 0h2.12a.185.185 0 00.184-.185V9.006a.185.185 0 00-.184-.186h-2.12a.185.185 0 00-.184.185v1.888c0 .102.083.185.185.185m-2.964 0h2.119a.185.185 0 00.185-.185V9.006a.185.185 0 00-.184-.186h-2.12a.186.186 0 00-.186.186v1.887c0 .102.084.185.186.185m-2.92 0h2.12a.185.185 0 00.184-.185V9.006a.185.185 0 00-.184-.186h-2.12a.185.185 0 00-.184.185v1.888c0 .102.082.185.185.185M23.763 9.89c-.065-.051-.672-.51-1.954-.51-.338.001-.676.03-1.01.087-.248-1.7-1.653-2.53-1.716-2.566l-.344-.199-.226.327c-.284.438-.49.922-.612 1.43-.23.97-.09 1.882.403 2.661-.595.332-1.55.413-1.744.42H.751a.751.751 0 00-.75.748 11.376 11.376 0 00.692 4.062c.545 1.428 1.355 2.48 2.41 3.124 1.18.723 3.1 1.137 5.275 1.137.983.003 1.963-.086 2.93-.266a12.248 12.248 0 003.823-1.389c.98-.567 1.86-1.288 2.61-2.136 1.252-1.418 1.998-2.997 2.553-4.4h.221c1.372 0 2.215-.549 2.68-1.009.309-.293.55-.65.707-1.046l.098-.288Z"/></g>
  <text x="78" y="106" class="grp">Docker — astro dev start</text>

  <rect x="50"  y="135" width="150" height="130" rx="10" class="box" fill="#eaf3ff"/>
  <g transform="translate(110.0,157.0) scale(1.2500)"><path fill="#336791" d="M23.5594 14.7228a.5269.5269 0 0 0-.0563-.1191c-.139-.2632-.4768-.3418-1.0074-.2321-1.6533.3411-2.2935.1312-2.5256-.0191 1.342-2.0482 2.445-4.522 3.0411-6.8297.2714-1.0507.7982-3.5237.1222-4.7316a1.5641 1.5641 0 0 0-.1509-.235C21.6931.9086 19.8007.0248 17.5099.0005c-1.4947-.0158-2.7705.3461-3.1161.4794a9.449 9.449 0 0 0-.5159-.0816 8.044 8.044 0 0 0-1.3114-.1278c-1.1822-.0184-2.2038.2642-3.0498.8406-.8573-.3211-4.7888-1.645-7.2219.0788C.9359 2.1526.3086 3.8733.4302 6.3043c.0409.818.5069 3.334 1.2423 5.7436.4598 1.5065.9387 2.7019 1.4334 3.582.553.9942 1.1259 1.5933 1.7143 1.7895.4474.1491 1.1327.1441 1.8581-.7279.8012-.9635 1.5903-1.8258 1.9446-2.2069.4351.2355.9064.3625 1.39.3772a.0569.0569 0 0 0 .0004.0041 11.0312 11.0312 0 0 0-.2472.3054c-.3389.4302-.4094.5197-1.5002.7443-.3102.064-1.1344.2339-1.1464.8115-.0025.1224.0329.2309.0919.3268.2269.4231.9216.6097 1.015.6331 1.3345.3335 2.5044.092 3.3714-.6787-.017 2.231.0775 4.4174.3454 5.0874.2212.5529.7618 1.9045 2.4692 1.9043.2505 0 .5263-.0291.8296-.0941 1.7819-.3821 2.5557-1.1696 2.855-2.9059.1503-.8707.4016-2.8753.5388-4.1012.0169-.0703.0357-.1207.057-.1362.0007-.0005.0697-.0471.4272.0307a.3673.3673 0 0 0 .0443.0068l.2539.0223.0149.001c.8468.0384 1.9114-.1426 2.5312-.4308.6438-.2988 1.8057-1.0323 1.5951-1.6698zM2.371 11.8765c-.7435-2.4358-1.1779-4.8851-1.2123-5.5719-.1086-2.1714.4171-3.6829 1.5623-4.4927 1.8367-1.2986 4.8398-.5408 6.108-.13-.0032.0032-.0066.0061-.0098.0094-2.0238 2.044-1.9758 5.536-1.9708 5.7495-.0002.0823.0066.1989.0162.3593.0348.5873.0996 1.6804-.0735 2.9184-.1609 1.1504.1937 2.2764.9728 3.0892.0806.0841.1648.1631.2518.2374-.3468.3714-1.1004 1.1926-1.9025 2.1576-.5677.6825-.9597.5517-1.0886.5087-.3919-.1307-.813-.5871-1.2381-1.3223-.4796-.839-.9635-2.0317-1.4155-3.5126zm6.0072 5.0871c-.1711-.0428-.3271-.1132-.4322-.1772.0889-.0394.2374-.0902.4833-.1409 1.2833-.2641 1.4815-.4506 1.9143-1.0002.0992-.126.2116-.2687.3673-.4426a.3549.3549 0 0 0 .0737-.1298c.1708-.1513.2724-.1099.4369-.0417.156.0646.3078.26.3695.4752.0291.1016.0619.2945-.0452.4444-.9043 1.2658-2.2216 1.2494-3.1676 1.0128zm2.094-3.988-.0525.141c-.133.3566-.2567.6881-.3334 1.003-.6674-.0021-1.3168-.2872-1.8105-.8024-.6279-.6551-.9131-1.5664-.7825-2.5004.1828-1.3079.1153-2.4468.079-3.0586-.005-.0857-.0095-.1607-.0122-.2199.2957-.2621 1.6659-.9962 2.6429-.7724.4459.1022.7176.4057.8305.928.5846 2.7038.0774 3.8307-.3302 4.7363-.084.1866-.1633.3629-.2311.5454zm7.3637 4.5725c-.0169.1768-.0358.376-.0618.5959l-.146.4383a.3547.3547 0 0 0-.0182.1077c-.0059.4747-.054.6489-.115.8693-.0634.2292-.1353.4891-.1794 1.0575-.11 1.4143-.8782 2.2267-2.4172 2.5565-1.5155.3251-1.7843-.4968-2.0212-1.2217a6.5824 6.5824 0 0 0-.0769-.2266c-.2154-.5858-.1911-1.4119-.1574-2.5551.0165-.5612-.0249-1.9013-.3302-2.6462.0044-.2932.0106-.5909.019-.8918a.3529.3529 0 0 0-.0153-.1126 1.4927 1.4927 0 0 0-.0439-.208c-.1226-.4283-.4213-.7866-.7797-.9351-.1424-.059-.4038-.1672-.7178-.0869.067-.276.1831-.5875.309-.9249l.0529-.142c.0595-.16.134-.3257.213-.5012.4265-.9476 1.0106-2.2453.3766-5.1772-.2374-1.0981-1.0304-1.6343-2.2324-1.5098-.7207.0746-1.3799.3654-1.7088.5321a5.6716 5.6716 0 0 0-.1958.1041c.0918-1.1064.4386-3.1741 1.7357-4.4823a4.0306 4.0306 0 0 1 .3033-.276.3532.3532 0 0 0 .1447-.0644c.7524-.5706 1.6945-.8506 2.802-.8325.4091.0067.8017.0339 1.1742.081 1.939.3544 3.2439 1.4468 4.0359 2.3827.8143.9623 1.2552 1.9315 1.4312 2.4543-1.3232-.1346-2.2234.1268-2.6797.779-.9926 1.4189.543 4.1729 1.2811 5.4964.1353.2426.2522.4522.2889.5413.2403.5825.5515.9713.7787 1.2552.0696.087.1372.1714.1885.245-.4008.1155-1.1208.3825-1.0552 1.717-.0123.1563-.0423.4469-.0834.8148-.0461.2077-.0702.4603-.0994.7662zm.8905-1.6211c-.0405-.8316.2691-.9185.5967-1.0105a2.8566 2.8566 0 0 0 .135-.0406 1.202 1.202 0 0 0 .1342.103c.5703.3765 1.5823.4213 3.0068.1344-.2016.1769-.5189.3994-.9533.6011-.4098.1903-1.0957.333-1.7473.3636-.7197.0336-1.0859-.0807-1.1721-.151zm.5695-9.2712c-.0059.3508-.0542.6692-.1054 1.0017-.055.3576-.112.7274-.1264 1.1762-.0142.4368.0404.8909.0932 1.3301.1066.887.216 1.8003-.2075 2.7014a3.5272 3.5272 0 0 1-.1876-.3856c-.0527-.1276-.1669-.3326-.3251-.6162-.6156-1.1041-2.0574-3.6896-1.3193-4.7446.3795-.5427 1.3408-.5661 2.1781-.463zm.2284 7.0137a12.3762 12.3762 0 0 0-.0853-.1074l-.0355-.0444c.7262-1.1995.5842-2.3862.4578-3.4385-.0519-.4318-.1009-.8396-.0885-1.2226.0129-.4061.0666-.7543.1185-1.0911.0639-.415.1288-.8443.1109-1.3505.0134-.0531.0188-.1158.0118-.1902-.0457-.4855-.5999-1.938-1.7294-3.253-.6076-.7073-1.4896-1.4972-2.6889-2.0395.5251-.1066 1.2328-.2035 2.0244-.1859 2.0515.0456 3.6746.8135 4.8242 2.2824a.908.908 0 0 1 .0667.1002c.7231 1.3556-.2762 6.2751-2.9867 10.5405zm-8.8166-6.1162c-.025.1794-.3089.4225-.6211.4225a.5821.5821 0 0 1-.0809-.0056c-.1873-.026-.3765-.144-.5059-.3156-.0458-.0605-.1203-.178-.1055-.2844.0055-.0401.0261-.0985.0925-.1488.1182-.0894.3518-.1226.6096-.0867.3163.0441.6426.1938.6113.4186zm7.9305-.4114c.0111.0792-.049.201-.1531.3102-.0683.0717-.212.1961-.4079.2232a.5456.5456 0 0 1-.075.0052c-.2935 0-.5414-.2344-.5607-.3717-.024-.1765.2641-.3106.5611-.352.297-.0414.6111.0088.6356.1851z"/></g>
  <text x="125" y="205" text-anchor="middle" class="lbl-b">Postgres</text>
  <text x="125" y="223" text-anchor="middle" class="grp">metadata db</text>

  <rect x="220" y="135" width="150" height="130" rx="10" class="box" fill="#eaf3ff"/>
  <g transform="translate(281.0,158.0) scale(1.1667)"><path fill="#017CEE" d="M17.195 16.822l4.002-4.102C23.55 10.308 23.934 5.154 24 .43a.396.396 0 0 0-.246-.373.392.392 0 0 0-.437.09l-6.495 6.658-4.102-4.003C10.309.45 5.154.066.43 0H.423a.397.397 0 0 0-.277.683l6.658 6.494-4.003 4.103C.45 13.692.065 18.846 0 23.57a.398.398 0 0 0 .683.282l6.494-6.657 3.934 3.837.17.165c2.41 2.353 7.565 2.737 12.288 2.803h.006a.397.397 0 0 0 .277-.683l-6.657-6.495zm-.409-9.476c.04.115.05.24.031.344-.17.96-1.593 2.538-4.304 3.87a.597.597 0 0 0-.08-.079c1.432-3.155 1.828-5.61 1.175-7.322l3.058 2.984.12.203zm-.131 9.44a.73.73 0 0 1-.347.031c-.96-.171-2.537-1.594-3.87-4.307a.656.656 0 0 0 .08-.078l-.001.001c3.155 1.432 5.61 1.83 7.324 1.174l-2.969 3.043M23.568.392a.05.05 0 0 1 .052-.011c.018.006.03.024.029.043-.065 4.655-.437 9.726-2.703 12.05-1.53 1.565-4.326 1.419-8.283-.377.006-.037.021-.07.02-.108 0-.044-.017-.082-.026-.123 2.83-1.39 4.315-3.037 4.506-4.115.057-.322-.009-.542-.102-.688l6.507-6.67V.392zM.393.43A.045.045 0 0 1 .382.38C.39.36.403.343.425.35c4.655.065 9.727.438 12.05 2.703l.002.002c1.56 1.527 1.415 4.323-.379 8.28-.033-.005-.062-.02-.097-.02h-.008c-.045.001-.084.019-.126.027-1.39-2.83-3.037-4.314-4.115-4.506-.323-.057-.542.01-.688.103L.393.43zm11.94 11.563a.331.331 0 0 1-.327.335H12a.332.332 0 0 1-.004-.661c.172.016.333.144.335.326h.002zm-5.12 4.661a.722.722 0 0 1-.03-.345c.17-.96 1.595-2.54 4.309-3.873.013.016.019.035.033.05.013.012.03.017.044.028-1.434 3.158-1.83 5.613-1.177 7.326l-3.041-2.967m-.006-9.659a.735.735 0 0 1 .345-.031c.961.17 2.54 1.594 3.871 4.306a.597.597 0 0 0-.079.08c-2.167-.983-4.007-1.484-5.498-1.484-.68 0-1.289.103-1.825.308L7.128 7.35M.43 23.607c-.018.018-.038.015-.052.01-.019-.007-.028-.021-.028-.043.065-4.654.437-9.725 2.703-12.049 1.527-1.565 4.325-1.419 8.286.378-.006.035-.02.067-.02.104 0 .043.018.083.026.124-2.831 1.391-4.317 3.04-4.51 4.117-.057.322.01.542.103.688L.43 23.607zm23.144.042c-4.655-.065-9.726-.437-12.05-2.703l-.005-.006c-1.56-1.526-1.412-4.322.383-8.279.033.005.064.02.098.02h.009c.043 0 .08-.018.122-.027 1.39 2.832 3.036 4.317 4.115 4.51.083.014.16.021.23.021a.776.776 0 0 0 .45-.133l6.68 6.516c.02.02.016.04.01.052a.042.042 0 0 1-.042.029z"/></g>
  <text x="295" y="208" text-anchor="middle" class="lbl-b">Scheduler</text>

  <rect x="390" y="135" width="150" height="130" rx="10" class="box" fill="#eaf3ff"/>
  <g transform="translate(452.0,157.0) scale(1.0833)"><path fill="#017CEE" d="M17.195 16.822l4.002-4.102C23.55 10.308 23.934 5.154 24 .43a.396.396 0 0 0-.246-.373.392.392 0 0 0-.437.09l-6.495 6.658-4.102-4.003C10.309.45 5.154.066.43 0H.423a.397.397 0 0 0-.277.683l6.658 6.494-4.003 4.103C.45 13.692.065 18.846 0 23.57a.398.398 0 0 0 .683.282l6.494-6.657 3.934 3.837.17.165c2.41 2.353 7.565 2.737 12.288 2.803h.006a.397.397 0 0 0 .277-.683l-6.657-6.495zm-.409-9.476c.04.115.05.24.031.344-.17.96-1.593 2.538-4.304 3.87a.597.597 0 0 0-.08-.079c1.432-3.155 1.828-5.61 1.175-7.322l3.058 2.984.12.203zm-.131 9.44a.73.73 0 0 1-.347.031c-.96-.171-2.537-1.594-3.87-4.307a.656.656 0 0 0 .08-.078l-.001.001c3.155 1.432 5.61 1.83 7.324 1.174l-2.969 3.043M23.568.392a.05.05 0 0 1 .052-.011c.018.006.03.024.029.043-.065 4.655-.437 9.726-2.703 12.05-1.53 1.565-4.326 1.419-8.283-.377.006-.037.021-.07.02-.108 0-.044-.017-.082-.026-.123 2.83-1.39 4.315-3.037 4.506-4.115.057-.322-.009-.542-.102-.688l6.507-6.67V.392zM.393.43A.045.045 0 0 1 .382.38C.39.36.403.343.425.35c4.655.065 9.727.438 12.05 2.703l.002.002c1.56 1.527 1.415 4.323-.379 8.28-.033-.005-.062-.02-.097-.02h-.008c-.045.001-.084.019-.126.027-1.39-2.83-3.037-4.314-4.115-4.506-.323-.057-.542.01-.688.103L.393.43zm11.94 11.563a.331.331 0 0 1-.327.335H12a.332.332 0 0 1-.004-.661c.172.016.333.144.335.326h.002zm-5.12 4.661a.722.722 0 0 1-.03-.345c.17-.96 1.595-2.54 4.309-3.873.013.016.019.035.033.05.013.012.03.017.044.028-1.434 3.158-1.83 5.613-1.177 7.326l-3.041-2.967m-.006-9.659a.735.735 0 0 1 .345-.031c.961.17 2.54 1.594 3.871 4.306a.597.597 0 0 0-.079.08c-2.167-.983-4.007-1.484-5.498-1.484-.68 0-1.289.103-1.825.308L7.128 7.35M.43 23.607c-.018.018-.038.015-.052.01-.019-.007-.028-.021-.028-.043.065-4.654.437-9.725 2.703-12.049 1.527-1.565 4.325-1.419 8.286.378-.006.035-.02.067-.02.104 0 .043.018.083.026.124-2.831 1.391-4.317 3.04-4.51 4.117-.057.322.01.542.103.688L.43 23.607zm23.144.042c-4.655-.065-9.726-.437-12.05-2.703l-.005-.006c-1.56-1.526-1.412-4.322.383-8.279.033.005.064.02.098.02h.009c.043 0 .08-.018.122-.027 1.39 2.832 3.036 4.317 4.115 4.51.083.014.16.021.23.021a.776.776 0 0 0 .45-.133l6.68 6.516c.02.02.016.04.01.052a.042.042 0 0 1-.042.029z"/></g>
  <text x="465" y="203" text-anchor="middle" class="lbl-b">DAG</text>
  <text x="465" y="221" text-anchor="middle" class="lbl-b">Processor</text>

  <rect x="560" y="135" width="150" height="130" rx="10" class="box" fill="#eaf3ff"/>
  <g transform="translate(621.0,158.0) scale(1.1667)"><path fill="#017CEE" d="M17.195 16.822l4.002-4.102C23.55 10.308 23.934 5.154 24 .43a.396.396 0 0 0-.246-.373.392.392 0 0 0-.437.09l-6.495 6.658-4.102-4.003C10.309.45 5.154.066.43 0H.423a.397.397 0 0 0-.277.683l6.658 6.494-4.003 4.103C.45 13.692.065 18.846 0 23.57a.398.398 0 0 0 .683.282l6.494-6.657 3.934 3.837.17.165c2.41 2.353 7.565 2.737 12.288 2.803h.006a.397.397 0 0 0 .277-.683l-6.657-6.495zm-.409-9.476c.04.115.05.24.031.344-.17.96-1.593 2.538-4.304 3.87a.597.597 0 0 0-.08-.079c1.432-3.155 1.828-5.61 1.175-7.322l3.058 2.984.12.203zm-.131 9.44a.73.73 0 0 1-.347.031c-.96-.171-2.537-1.594-3.87-4.307a.656.656 0 0 0 .08-.078l-.001.001c3.155 1.432 5.61 1.83 7.324 1.174l-2.969 3.043M23.568.392a.05.05 0 0 1 .052-.011c.018.006.03.024.029.043-.065 4.655-.437 9.726-2.703 12.05-1.53 1.565-4.326 1.419-8.283-.377.006-.037.021-.07.02-.108 0-.044-.017-.082-.026-.123 2.83-1.39 4.315-3.037 4.506-4.115.057-.322-.009-.542-.102-.688l6.507-6.67V.392zM.393.43A.045.045 0 0 1 .382.38C.39.36.403.343.425.35c4.655.065 9.727.438 12.05 2.703l.002.002c1.56 1.527 1.415 4.323-.379 8.28-.033-.005-.062-.02-.097-.02h-.008c-.045.001-.084.019-.126.027-1.39-2.83-3.037-4.314-4.115-4.506-.323-.057-.542.01-.688.103L.393.43zm11.94 11.563a.331.331 0 0 1-.327.335H12a.332.332 0 0 1-.004-.661c.172.016.333.144.335.326h.002zm-5.12 4.661a.722.722 0 0 1-.03-.345c.17-.96 1.595-2.54 4.309-3.873.013.016.019.035.033.05.013.012.03.017.044.028-1.434 3.158-1.83 5.613-1.177 7.326l-3.041-2.967m-.006-9.659a.735.735 0 0 1 .345-.031c.961.17 2.54 1.594 3.871 4.306a.597.597 0 0 0-.079.08c-2.167-.983-4.007-1.484-5.498-1.484-.68 0-1.289.103-1.825.308L7.128 7.35M.43 23.607c-.018.018-.038.015-.052.01-.019-.007-.028-.021-.028-.043.065-4.654.437-9.725 2.703-12.049 1.527-1.565 4.325-1.419 8.286.378-.006.035-.02.067-.02.104 0 .043.018.083.026.124-2.831 1.391-4.317 3.04-4.51 4.117-.057.322.01.542.103.688L.43 23.607zm23.144.042c-4.655-.065-9.726-.437-12.05-2.703l-.005-.006c-1.56-1.526-1.412-4.322.383-8.279.033.005.064.02.098.02h.009c.043 0 .08-.018.122-.027 1.39 2.832 3.036 4.317 4.115 4.51.083.014.16.021.23.021a.776.776 0 0 0 .45-.133l6.68 6.516c.02.02.016.04.01.052a.042.042 0 0 1-.042.029z"/></g>
  <text x="635" y="208" text-anchor="middle" class="lbl-b">Triggerer</text>

  <rect x="730" y="135" width="170" height="130" rx="10" class="box" fill="#cfe6ff" stroke="#017CEE" stroke-width="3.5"/>
  <g transform="translate(801.0,156.0) scale(1.1667)"><path fill="#017CEE" d="M17.195 16.822l4.002-4.102C23.55 10.308 23.934 5.154 24 .43a.396.396 0 0 0-.246-.373.392.392 0 0 0-.437.09l-6.495 6.658-4.102-4.003C10.309.45 5.154.066.43 0H.423a.397.397 0 0 0-.277.683l6.658 6.494-4.003 4.103C.45 13.692.065 18.846 0 23.57a.398.398 0 0 0 .683.282l6.494-6.657 3.934 3.837.17.165c2.41 2.353 7.565 2.737 12.288 2.803h.006a.397.397 0 0 0 .277-.683l-6.657-6.495zm-.409-9.476c.04.115.05.24.031.344-.17.96-1.593 2.538-4.304 3.87a.597.597 0 0 0-.08-.079c1.432-3.155 1.828-5.61 1.175-7.322l3.058 2.984.12.203zm-.131 9.44a.73.73 0 0 1-.347.031c-.96-.171-2.537-1.594-3.87-4.307a.656.656 0 0 0 .08-.078l-.001.001c3.155 1.432 5.61 1.83 7.324 1.174l-2.969 3.043M23.568.392a.05.05 0 0 1 .052-.011c.018.006.03.024.029.043-.065 4.655-.437 9.726-2.703 12.05-1.53 1.565-4.326 1.419-8.283-.377.006-.037.021-.07.02-.108 0-.044-.017-.082-.026-.123 2.83-1.39 4.315-3.037 4.506-4.115.057-.322-.009-.542-.102-.688l6.507-6.67V.392zM.393.43A.045.045 0 0 1 .382.38C.39.36.403.343.425.35c4.655.065 9.727.438 12.05 2.703l.002.002c1.56 1.527 1.415 4.323-.379 8.28-.033-.005-.062-.02-.097-.02h-.008c-.045.001-.084.019-.126.027-1.39-2.83-3.037-4.314-4.115-4.506-.323-.057-.542.01-.688.103L.393.43zm11.94 11.563a.331.331 0 0 1-.327.335H12a.332.332 0 0 1-.004-.661c.172.016.333.144.335.326h.002zm-5.12 4.661a.722.722 0 0 1-.03-.345c.17-.96 1.595-2.54 4.309-3.873.013.016.019.035.033.05.013.012.03.017.044.028-1.434 3.158-1.83 5.613-1.177 7.326l-3.041-2.967m-.006-9.659a.735.735 0 0 1 .345-.031c.961.17 2.54 1.594 3.871 4.306a.597.597 0 0 0-.079.08c-2.167-.983-4.007-1.484-5.498-1.484-.68 0-1.289.103-1.825.308L7.128 7.35M.43 23.607c-.018.018-.038.015-.052.01-.019-.007-.028-.021-.028-.043.065-4.654.437-9.725 2.703-12.049 1.527-1.565 4.325-1.419 8.286.378-.006.035-.02.067-.02.104 0 .043.018.083.026.124-2.831 1.391-4.317 3.04-4.51 4.117-.057.322.01.542.103.688L.43 23.607zm23.144.042c-4.655-.065-9.726-.437-12.05-2.703l-.005-.006c-1.56-1.526-1.412-4.322.383-8.279.033.005.064.02.098.02h.009c.043 0 .08-.018.122-.027 1.39 2.832 3.036 4.317 4.115 4.51.083.014.16.021.23.021a.776.776 0 0 0 .45-.133l6.68 6.516c.02.02.016.04.01.052a.042.042 0 0 1-.042.029z"/></g>
  <text x="815" y="203" text-anchor="middle" class="lbl-b">API Server</text>
  <text x="815" y="221" text-anchor="middle" class="grp">Airflow UI</text>

  <!-- API Server -> UI url -->
  <path d="M900,195 C 940,195 940,325 900,340" class="arrow"/>
  <rect x="700" y="315" width="200" height="55" rx="10" class="box" fill="#fff7d6"/>
  <text x="800" y="348" text-anchor="middle" class="lbl">🌐 localhost:8080</text>

  <!-- Scheduler/DAGProcessor -> Cosmos -->
  <path d="M465,265 C 465,310 480,310 480,368" class="arrow"/>

  <rect x="300" y="368" width="360" height="72" rx="10" class="box" fill="#ede7ff" stroke="#7b2ff7" stroke-width="3"/>
  <g transform="translate(315.0,389.0) scale(1.2500)"><path fill="#3776AB" d="M14.25.18l.9.2.73.26.59.3.45.32.34.34.25.34.16.33.1.3.04.26.02.2-.01.13V8.5l-.05.63-.13.55-.21.46-.26.38-.3.31-.33.25-.35.19-.35.14-.33.1-.3.07-.26.04-.21.02H8.77l-.69.05-.59.14-.5.22-.41.27-.33.32-.27.35-.2.36-.15.37-.1.35-.07.32-.04.27-.02.21v3.06H3.17l-.21-.03-.28-.07-.32-.12-.35-.18-.36-.26-.36-.36-.35-.46-.32-.59-.28-.73-.21-.88-.14-1.05-.05-1.23.06-1.22.16-1.04.24-.87.32-.71.36-.57.4-.44.42-.33.42-.24.4-.16.36-.1.32-.05.24-.01h.16l.06.01h8.16v-.83H6.18l-.01-2.75-.02-.37.05-.34.11-.31.17-.28.25-.26.31-.23.38-.2.44-.18.51-.15.58-.12.64-.1.71-.06.77-.04.84-.02 1.27.05zm-6.3 1.98l-.23.33-.08.41.08.41.23.34.33.22.41.09.41-.09.33-.22.23-.34.08-.41-.08-.41-.23-.33-.33-.22-.41-.09-.41.09zm13.09 3.95l.28.06.32.12.35.18.36.27.36.35.35.47.32.59.28.73.21.88.14 1.04.05 1.23-.06 1.23-.16 1.04-.24.86-.32.71-.36.57-.4.45-.42.33-.42.24-.4.16-.36.09-.32.05-.24.02-.16-.01h-8.22v.82h5.84l.01 2.76.02.36-.05.34-.11.31-.17.29-.25.25-.31.24-.38.2-.44.17-.51.15-.58.13-.64.09-.71.07-.77.04-.84.01-1.27-.04-1.07-.14-.9-.2-.73-.25-.59-.3-.45-.33-.34-.34-.25-.34-.16-.33-.1-.3-.04-.25-.02-.2.01-.13v-5.34l.05-.64.13-.54.21-.46.26-.38.3-.32.33-.24.35-.2.35-.14.33-.1.3-.06.26-.04.21-.02.13-.01h5.84l.69-.05.59-.14.5-.21.41-.28.33-.32.27-.35.2-.36.15-.36.1-.35.07-.32.04-.28.02-.21V6.07h2.09l.14.01zm-6.47 14.25l-.23.33-.08.41.08.41.23.33.33.23.41.08.41-.08.33-.23.23-.33.08-.41-.08-.41-.23-.33-.33-.23-.41-.08-.41.08z"/></g>
  <text x="500" y="398" text-anchor="middle" class="lbl-b">dags/dbt_dag.py</text>
  <text x="500" y="418" text-anchor="middle" class="grp">Cosmos DbtDag</text>

  <path d="M480,440 L480,475" class="arrow"/>

  <rect x="260" y="475" width="440" height="72" rx="10" class="box" fill="#fff0e8" stroke="#FF694B" stroke-width="3"/>
  <g transform="translate(278.0,497.0) scale(1.1667)"><path fill="#181717" d="M12 .297c-6.63 0-12 5.373-12 12 0 5.303 3.438 9.8 8.205 11.385.6.113.82-.258.82-.577 0-.285-.01-1.04-.015-2.04-3.338.724-4.042-1.61-4.042-1.61C4.422 18.07 3.633 17.7 3.633 17.7c-1.087-.744.084-.729.084-.729 1.205.084 1.838 1.236 1.838 1.236 1.07 1.835 2.809 1.305 3.495.998.108-.776.417-1.305.76-1.605-2.665-.3-5.466-1.332-5.466-5.93 0-1.31.465-2.38 1.235-3.22-.135-.303-.54-1.523.105-3.176 0 0 1.005-.322 3.3 1.23.96-.267 1.98-.399 3-.405 1.02.006 2.04.138 3 .405 2.28-1.552 3.285-1.23 3.285-1.23.645 1.653.24 2.873.12 3.176.765.84 1.23 1.91 1.23 3.22 0 4.61-2.805 5.625-5.475 5.92.42.36.81 1.096.81 2.22 0 1.606-.015 2.896-.015 3.286 0 .315.21.69.825.57C20.565 22.092 24 17.592 24 12.297c0-6.627-5.373-12-12-12"/></g>
  <text x="500" y="505" text-anchor="middle" class="lbl-b">dags/dbt-datapipeline-0</text>
  <text x="500" y="525" text-anchor="middle" class="grp">git submodule (dbt project)</text>

  <path d="M480,547 L480,582" class="arrow"/>

  <!-- Lineage -->
  <rect x="60"  y="587" width="200" height="62" rx="10" class="box" fill="#fdece7"/>
  <g transform="translate(78.0,606.0) scale(1.0000)"><path fill="#FF694B" d="M17.9004 9.3763a8.1488 8.1488 0 0 0-3.0421-3.1206l1.7708.8385a10.2874 10.2874 0 0 1 3.74 3.0007l3.234-5.9295a2.8546 2.8546 0 0 0-.0611-2.9604C22.7566.0371 21.2112-.3409 19.9754.3327l-5.8749 3.2101a4.3612 4.3612 0 0 1-4.1761 0L4.1769.408a2.8545 2.8545 0 0 0-2.9592.0632c-1.1673.7853-1.5452 2.33-.8723 3.5655L3.55 9.9106a4.3612 4.3612 0 0 1 0 4.1772l-3.1272 5.743a2.86 2.86 0 0 0 .085 2.9974c.794 1.1438 2.3225 1.5054 3.5448.8385l6.0581-3.3049a10.2877 10.2877 0 0 1-3.0051-3.7454l-.8374-1.7708a8.148 8.148 0 0 0 3.1206 3.0421l10.5832 5.779c1.2213.666 2.7481.3055 3.5426-.8363a2.8699 2.8699 0 0 0 .0796-3.0018L17.9004 9.3763zm3.3801-7.7351c.6022 0 1.0904.4882 1.0904 1.0904s-.4882 1.0904-1.0904 1.0904-1.0904-.4882-1.0904-1.0904.4882-1.0904 1.0904-1.0904zM2.7442 3.822c-.6022 0-1.0904-.4882-1.0904-1.0904s.4882-1.0904 1.0904-1.0904 1.0904.4882 1.0904 1.0904S3.3464 3.822 2.7442 3.822zm0 18.5363c-.6022 0-1.0904-.4882-1.0904-1.0904 0-.6022.4882-1.0904 1.0904-1.0904s1.0904.4882 1.0904 1.0904c0 .6022-.4882 1.0904-1.0904 1.0904zm10.3585-11.4489c-1.2008-.0035-2.177.9672-2.1805 2.1679a2.1738 2.1738 0 0 0 .7052 1.6091c-1.4872-.2091-2.5234-1.5843-2.3142-3.0716.2091-1.4872 1.5843-2.5234 3.0716-2.3142a2.7194 2.7194 0 0 1 2.3142 2.3142 2.1623 2.1623 0 0 0-1.5963-.7054zm8.1778 11.4489c-.6022 0-1.0904-.4882-1.0904-1.0904 0-.6022.4882-1.0904 1.0904-1.0904s1.0904.4882 1.0904 1.0904c0 .6022-.4882 1.0904-1.0904 1.0904z"/></g>
  <text x="165" y="623" text-anchor="middle" class="lbl">stg_tpch_orders</text>

  <rect x="60"  y="670" width="200" height="62" rx="10" class="box" fill="#fdece7"/>
  <g transform="translate(78.0,689.0) scale(1.0000)"><path fill="#FF694B" d="M17.9004 9.3763a8.1488 8.1488 0 0 0-3.0421-3.1206l1.7708.8385a10.2874 10.2874 0 0 1 3.74 3.0007l3.234-5.9295a2.8546 2.8546 0 0 0-.0611-2.9604C22.7566.0371 21.2112-.3409 19.9754.3327l-5.8749 3.2101a4.3612 4.3612 0 0 1-4.1761 0L4.1769.408a2.8545 2.8545 0 0 0-2.9592.0632c-1.1673.7853-1.5452 2.33-.8723 3.5655L3.55 9.9106a4.3612 4.3612 0 0 1 0 4.1772l-3.1272 5.743a2.86 2.86 0 0 0 .085 2.9974c.794 1.1438 2.3225 1.5054 3.5448.8385l6.0581-3.3049a10.2877 10.2877 0 0 1-3.0051-3.7454l-.8374-1.7708a8.148 8.148 0 0 0 3.1206 3.0421l10.5832 5.779c1.2213.666 2.7481.3055 3.5426-.8363a2.8699 2.8699 0 0 0 .0796-3.0018L17.9004 9.3763zm3.3801-7.7351c.6022 0 1.0904.4882 1.0904 1.0904s-.4882 1.0904-1.0904 1.0904-1.0904-.4882-1.0904-1.0904.4882-1.0904 1.0904-1.0904zM2.7442 3.822c-.6022 0-1.0904-.4882-1.0904-1.0904s.4882-1.0904 1.0904-1.0904 1.0904.4882 1.0904 1.0904S3.3464 3.822 2.7442 3.822zm0 18.5363c-.6022 0-1.0904-.4882-1.0904-1.0904 0-.6022.4882-1.0904 1.0904-1.0904s1.0904.4882 1.0904 1.0904c0 .6022-.4882 1.0904-1.0904 1.0904zm10.3585-11.4489c-1.2008-.0035-2.177.9672-2.1805 2.1679a2.1738 2.1738 0 0 0 .7052 1.6091c-1.4872-.2091-2.5234-1.5843-2.3142-3.0716.2091-1.4872 1.5843-2.5234 3.0716-2.3142a2.7194 2.7194 0 0 1 2.3142 2.3142 2.1623 2.1623 0 0 0-1.5963-.7054zm8.1778 11.4489c-.6022 0-1.0904-.4882-1.0904-1.0904 0-.6022.4882-1.0904 1.0904-1.0904s1.0904.4882 1.0904 1.0904c0 .6022-.4882 1.0904-1.0904 1.0904z"/></g>
  <text x="165" y="706" text-anchor="middle" class="lbl">stg_tpch_line_items</text>

  <path d="M260,615 L315,655" class="arrow"/>
  <path d="M260,698 L315,668" class="arrow"/>

  <rect x="320" y="630" width="200" height="62" rx="10" class="box" fill="#fdece7"/>
  <g transform="translate(338.0,649.0) scale(1.0000)"><path fill="#FF694B" d="M17.9004 9.3763a8.1488 8.1488 0 0 0-3.0421-3.1206l1.7708.8385a10.2874 10.2874 0 0 1 3.74 3.0007l3.234-5.9295a2.8546 2.8546 0 0 0-.0611-2.9604C22.7566.0371 21.2112-.3409 19.9754.3327l-5.8749 3.2101a4.3612 4.3612 0 0 1-4.1761 0L4.1769.408a2.8545 2.8545 0 0 0-2.9592.0632c-1.1673.7853-1.5452 2.33-.8723 3.5655L3.55 9.9106a4.3612 4.3612 0 0 1 0 4.1772l-3.1272 5.743a2.86 2.86 0 0 0 .085 2.9974c.794 1.1438 2.3225 1.5054 3.5448.8385l6.0581-3.3049a10.2877 10.2877 0 0 1-3.0051-3.7454l-.8374-1.7708a8.148 8.148 0 0 0 3.1206 3.0421l10.5832 5.779c1.2213.666 2.7481.3055 3.5426-.8363a2.8699 2.8699 0 0 0 .0796-3.0018L17.9004 9.3763zm3.3801-7.7351c.6022 0 1.0904.4882 1.0904 1.0904s-.4882 1.0904-1.0904 1.0904-1.0904-.4882-1.0904-1.0904.4882-1.0904 1.0904-1.0904zM2.7442 3.822c-.6022 0-1.0904-.4882-1.0904-1.0904s.4882-1.0904 1.0904-1.0904 1.0904.4882 1.0904 1.0904S3.3464 3.822 2.7442 3.822zm0 18.5363c-.6022 0-1.0904-.4882-1.0904-1.0904 0-.6022.4882-1.0904 1.0904-1.0904s1.0904.4882 1.0904 1.0904c0 .6022-.4882 1.0904-1.0904 1.0904zm10.3585-11.4489c-1.2008-.0035-2.177.9672-2.1805 2.1679a2.1738 2.1738 0 0 0 .7052 1.6091c-1.4872-.2091-2.5234-1.5843-2.3142-3.0716.2091-1.4872 1.5843-2.5234 3.0716-2.3142a2.7194 2.7194 0 0 1 2.3142 2.3142 2.1623 2.1623 0 0 0-1.5963-.7054zm8.1778 11.4489c-.6022 0-1.0904-.4882-1.0904-1.0904 0-.6022.4882-1.0904 1.0904-1.0904s1.0904.4882 1.0904 1.0904c0 .6022-.4882 1.0904-1.0904 1.0904z"/></g>
  <text x="425" y="666" text-anchor="middle" class="lbl">int_order_items</text>

  <path d="M520,661 L570,661" class="arrow"/>

  <rect x="575" y="630" width="230" height="62" rx="10" class="box" fill="#fdece7"/>
  <g transform="translate(593.0,649.0) scale(1.0000)"><path fill="#FF694B" d="M17.9004 9.3763a8.1488 8.1488 0 0 0-3.0421-3.1206l1.7708.8385a10.2874 10.2874 0 0 1 3.74 3.0007l3.234-5.9295a2.8546 2.8546 0 0 0-.0611-2.9604C22.7566.0371 21.2112-.3409 19.9754.3327l-5.8749 3.2101a4.3612 4.3612 0 0 1-4.1761 0L4.1769.408a2.8545 2.8545 0 0 0-2.9592.0632c-1.1673.7853-1.5452 2.33-.8723 3.5655L3.55 9.9106a4.3612 4.3612 0 0 1 0 4.1772l-3.1272 5.743a2.86 2.86 0 0 0 .085 2.9974c.794 1.1438 2.3225 1.5054 3.5448.8385l6.0581-3.3049a10.2877 10.2877 0 0 1-3.0051-3.7454l-.8374-1.7708a8.148 8.148 0 0 0 3.1206 3.0421l10.5832 5.779c1.2213.666 2.7481.3055 3.5426-.8363a2.8699 2.8699 0 0 0 .0796-3.0018L17.9004 9.3763zm3.3801-7.7351c.6022 0 1.0904.4882 1.0904 1.0904s-.4882 1.0904-1.0904 1.0904-1.0904-.4882-1.0904-1.0904.4882-1.0904 1.0904-1.0904zM2.7442 3.822c-.6022 0-1.0904-.4882-1.0904-1.0904s.4882-1.0904 1.0904-1.0904 1.0904.4882 1.0904 1.0904S3.3464 3.822 2.7442 3.822zm0 18.5363c-.6022 0-1.0904-.4882-1.0904-1.0904 0-.6022.4882-1.0904 1.0904-1.0904s1.0904.4882 1.0904 1.0904c0 .6022-.4882 1.0904-1.0904 1.0904zm10.3585-11.4489c-1.2008-.0035-2.177.9672-2.1805 2.1679a2.1738 2.1738 0 0 0 .7052 1.6091c-1.4872-.2091-2.5234-1.5843-2.3142-3.0716.2091-1.4872 1.5843-2.5234 3.0716-2.3142a2.7194 2.7194 0 0 1 2.3142 2.3142 2.1623 2.1623 0 0 0-1.5963-.7054zm8.1778 11.4489c-.6022 0-1.0904-.4882-1.0904-1.0904 0-.6022.4882-1.0904 1.0904-1.0904s1.0904.4882 1.0904 1.0904c0 .6022-.4882 1.0904-1.0904 1.0904z"/></g>
  <text x="690" y="666" text-anchor="middle" class="lbl">int_order_items_summary</text>

  <path d="M805,661 L870,661 L870,725" class="arrow"/>
  <path d="M165,649 C 165,790 800,805 870,755" class="arrow"/>

  <rect x="790" y="725" width="160" height="72" rx="10" class="box" fill="#e2f6ff" stroke="#017CEE" stroke-width="3"/>
  <g transform="translate(810.0,749.0) scale(1.0000)"><path fill="#FF694B" d="M17.9004 9.3763a8.1488 8.1488 0 0 0-3.0421-3.1206l1.7708.8385a10.2874 10.2874 0 0 1 3.74 3.0007l3.234-5.9295a2.8546 2.8546 0 0 0-.0611-2.9604C22.7566.0371 21.2112-.3409 19.9754.3327l-5.8749 3.2101a4.3612 4.3612 0 0 1-4.1761 0L4.1769.408a2.8545 2.8545 0 0 0-2.9592.0632c-1.1673.7853-1.5452 2.33-.8723 3.5655L3.55 9.9106a4.3612 4.3612 0 0 1 0 4.1772l-3.1272 5.743a2.86 2.86 0 0 0 .085 2.9974c.794 1.1438 2.3225 1.5054 3.5448.8385l6.0581-3.3049a10.2877 10.2877 0 0 1-3.0051-3.7454l-.8374-1.7708a8.148 8.148 0 0 0 3.1206 3.0421l10.5832 5.779c1.2213.666 2.7481.3055 3.5426-.8363a2.8699 2.8699 0 0 0 .0796-3.0018L17.9004 9.3763zm3.3801-7.7351c.6022 0 1.0904.4882 1.0904 1.0904s-.4882 1.0904-1.0904 1.0904-1.0904-.4882-1.0904-1.0904.4882-1.0904 1.0904-1.0904zM2.7442 3.822c-.6022 0-1.0904-.4882-1.0904-1.0904s.4882-1.0904 1.0904-1.0904 1.0904.4882 1.0904 1.0904S3.3464 3.822 2.7442 3.822zm0 18.5363c-.6022 0-1.0904-.4882-1.0904-1.0904 0-.6022.4882-1.0904 1.0904-1.0904s1.0904.4882 1.0904 1.0904c0 .6022-.4882 1.0904-1.0904 1.0904zm10.3585-11.4489c-1.2008-.0035-2.177.9672-2.1805 2.1679a2.1738 2.1738 0 0 0 .7052 1.6091c-1.4872-.2091-2.5234-1.5843-2.3142-3.0716.2091-1.4872 1.5843-2.5234 3.0716-2.3142a2.7194 2.7194 0 0 1 2.3142 2.3142 2.1623 2.1623 0 0 0-1.5963-.7054zm8.1778 11.4489c-.6022 0-1.0904-.4882-1.0904-1.0904 0-.6022.4882-1.0904 1.0904-1.0904s1.0904.4882 1.0904 1.0904c0 .6022-.4882 1.0904-1.0904 1.0904z"/></g>
  <text x="875" y="756" text-anchor="middle" class="lbl-b">fct_orders</text>
  <text x="875" y="776" text-anchor="middle" class="grp">run + test</text>

  <!-- down to snowflake -->
  <path d="M480,725 C 480,800 480,840 480,895" class="arrow"/>
  <path d="M870,797 C 870,860 620,890 505,900" class="arrow"/>

  <rect x="280" y="905" width="400" height="95" rx="14" class="box" fill="#d6f3fb" stroke="#29B5E8" stroke-width="3.5"/>
  <g transform="translate(313.0,933.0) scale(1.4167)"><path fill="#29B5E8" d="M24 3.459c0 .646-.418 1.18-1.141 1.18-.723 0-1.142-.534-1.142-1.18 0-.647.419-1.18 1.142-1.18.723 0 1.141.533 1.141 1.18zm-.228 0c0-.533-.38-.951-.913-.951s-.913.38-.913.95c0 .533.38.952.913.952.57 0 .913-.419.913-.951zm-1.37-.533h.495c.266 0 .456.152.456.38 0 .153-.076.229-.19.305l.19.266v.038h-.266l-.19-.266h-.229v.266h-.266zm.495.228h-.229v.267h.229c.114 0 .152-.038.152-.114.038-.077-.038-.153-.152-.153zM7.602 12.4c.038-.151.076-.304.076-.456 0-.114-.038-.228-.038-.342-.114-.343-.304-.647-.646-.838l-4.87-2.777c-.685-.38-1.56-.152-1.94.533-.381.685-.153 1.56.532 1.94l2.701 1.56-2.701 1.56c-.685.38-.913 1.256-.533 1.94.38.685 1.256.914 1.94.533l4.832-2.777c.343-.267.571-.533.647-.876zm1.332 2.626c-.266-.038-.57.038-.837.19l-4.832 2.777c-.685.38-.913 1.256-.532 1.94.38.686 1.255.914 1.94.533l2.701-1.56v3.12c0 .8.647 1.408 1.446 1.408.799 0 1.407-.647 1.407-1.408v-5.592c0-.761-.57-1.37-1.293-1.408zm4.946-6.088c.266.038.57-.038.837-.19l4.832-2.777c.685-.38.913-1.256.532-1.94-.38-.686-1.255-.914-1.94-.533l-2.701 1.56V1.975c0-.799-.647-1.408-1.446-1.408-.799 0-1.446.609-1.446 1.408V7.53c0 .76.609 1.37 1.332 1.407zM3.265 5.97l4.832 2.777c.266.152.533.19.837.19.723-.038 1.331-.684 1.331-1.407V1.975c0-.799-.646-1.408-1.407-1.408-.799 0-1.446.647-1.446 1.408v3.12l-2.701-1.56c-.685-.38-1.56-.152-1.94.533-.419.646-.19 1.521.494 1.902zm9.093 6.011a.412.412 0 00-.114-.266l-.57-.571a.346.346 0 00-.267-.114.412.412 0 00-.266.114l-.571.57a.411.411 0 00-.114.267c0 .076.038.19.114.267l.57.57a.345.345 0 00.267.114c.076 0 .19-.038.266-.114l.571-.57a.412.412 0 00.114-.267zm1.598.533L11.94 14.53c-.039.038-.153.114-.229.114h-.608a.411.411 0 01-.267-.114L8.82 12.514a.408.408 0 01-.076-.229v-.608c0-.076.038-.19.114-.267l2.016-2.016a.41.41 0 01.267-.114h.608a.41.41 0 01.267.114l2.016 2.016a.347.347 0 01.114.267v.608c-.076.077-.114.19-.19.229zm5.593 5.44l-4.832-2.777c-.266-.152-.57-.19-.837-.152-.723.038-1.332.684-1.332 1.408v5.554c0 .8.647 1.408 1.408 1.408.799 0 1.446-.647 1.446-1.408v-3.12l2.7 1.56c.686.38 1.561.152 1.941-.533.419-.646.19-1.521-.494-1.94zm2.549-7.533l-2.701 1.56 2.7 1.56c.686.38.914 1.256.533 1.94-.38.685-1.255.913-1.94.533l-4.832-2.778a1.644 1.644 0 01-.647-.798c-.037-.153-.076-.305-.076-.457 0-.114.039-.228.039-.342.114-.343.342-.647.646-.837l4.832-2.778c.685-.38 1.56-.152 1.94.533.457.609.19 1.484-.494 1.864"/></g>
  <text x="500" y="944" text-anchor="middle" class="lbl-b" font-size="18">Snowflake Warehouse</text>
  <text x="500" y="968" text-anchor="middle" class="grp">DBT_DB.dbt_schema</text>

  <text x="480" y="1050" text-anchor="middle" class="grp" font-size="13">Airflow schedules &amp; retries · dbt transforms · Cosmos keeps both in sync</text>
</svg>
